<svg width="414" height="460" viewBox="0 0 414 460" fill="none" xmlns="http://www.w3.org/2000/svg">
<path d="M99.6775 15.5823H109.783C157.624 15.5823 196.402 54.3456 196.402 102.167V272.998H13.0588V102.167C13.0588 54.3456 51.8424 15.5823 99.6775 15.5823Z" fill="#FFB7D5"/>
<path d="M138.066 171.284V275.675H56.6186V171.284H138.066ZM140.174 169.176H54.5099V277.783H140.174V169.176Z" fill="#CA7358"/>
<path d="M140.174 169.176H54.5099V191.63H140.174V169.176Z" fill="#CA7358"/>
<path d="M54.0987 114.894V276.197H5.03536V114.894H54.0987ZM56.2074 112.786H2.9267V278.305H56.2074V112.786Z" fill="#CA7358"/>
<path d="M205.316 82.2589V275.654H140.586V82.2589H205.316ZM207.425 80.151H138.477V277.762H207.425V80.151Z" fill="#CA7358"/>
<path d="M166.306 106.52H167.313C172.084 106.52 175.948 110.383 175.948 115.152V135.234H157.671V115.152C157.671 110.383 161.54 106.52 166.306 106.52Z" fill="#CA7358"/>
<path d="M155.583 122.182H178.041" stroke="#FFB7D5" stroke-width="4" stroke-linecap="round" stroke-linejoin="round"/>
<path d="M166.306 158.036H167.313C172.084 158.036 175.948 161.899 175.948 166.668V186.761H157.671V166.673C157.671 161.904 161.535 158.041 166.306 158.041V158.036Z" fill="#F5EBDD"/>
<path d="M155.583 173.703H178.041" stroke="#FFB7D5" stroke-width="4" stroke-linecap="round" stroke-linejoin="round"/>
<path d="M166.306 209.557H167.313C172.084 209.557 175.948 213.42 175.948 218.189V238.271H157.671V218.189C157.671 213.42 161.54 209.557 166.306 209.557Z" fill="#F5EBDD"/>
<path d="M155.583 225.218H178.041" stroke="#FFB7D5" stroke-width="4" stroke-linecap="round" stroke-linejoin="round"/>
<path d="M166.306 261.062H167.313C172.084 261.062 175.948 264.925 175.948 269.694V288.138H157.671V269.694C157.671 264.925 161.54 261.062 166.306 261.062Z" fill="#30242A"/>
<path d="M18.6995 149.204H19.7064C24.4772 149.204 28.3414 153.067 28.3414 157.836V177.918H10.0645V157.836C10.0645 153.067 13.9339 149.204 18.6995 149.204Z" fill="#F5EBDD"/>
<path d="M7.97693 164.865H30.4342" stroke="#FFB7D5" stroke-width="4" stroke-linecap="round" stroke-linejoin="round"/>
<path d="M18.6995 200.72H19.7064C24.4772 200.72 28.3414 204.583 28.3414 209.352V229.445H10.0645V209.357C10.0592 204.588 13.9234 200.725 18.6942 200.72C18.6995 200.72 18.6995 200.72 18.6995 200.72Z" fill="#F5EBDD"/>
<path d="M7.97693 216.386H30.4342" stroke="#FFB7D5" stroke-width="4" stroke-linecap="round" stroke-linejoin="round"/>
<path d="M18.6995 252.241H19.7064C24.4772 252.241 28.3414 256.104 28.3414 260.873V280.955H10.0645V260.873C10.0645 256.104 13.9339 252.241 18.6995 252.241Z" fill="#CA7358"/>
<path d="M7.97693 267.902H30.4342" stroke="#FFB7D5" stroke-width="4" stroke-linecap="round" stroke-linejoin="round"/>
<path d="M207.425 80.151H138.477V88.7668H207.425V80.151Z" fill="#CA7358"/>
<path d="M56.2074 108.607H2.9267V117.223H56.2074V108.607Z" fill="#CA7358"/>
<path d="M88.2011 211.992H69.9189V235.489H88.2011V211.992Z" fill="#F5EBDD"/>
<path d="M67.8261 222.436H90.2887" stroke="#FFB7D5" stroke-width="4" stroke-linecap="round" stroke-linejoin="round"/>
<path d="M79.06 236.532V222.436" stroke="#FFB7D5" stroke-width="4" stroke-linecap="round" stroke-linejoin="round"/>
<path d="M88.2011 254.428H69.9189V277.925H88.2011V254.428Z" fill="#CA7358"/>
<path d="M67.8261 264.867H90.2887" stroke="#FFB7D5" stroke-width="4" stroke-linecap="round" stroke-linejoin="round"/>
<path d="M79.06 278.969V264.867" stroke="#FFB7D5" stroke-width="4" stroke-linecap="round" stroke-linejoin="round"/>
<path d="M122.672 211.992H104.39V235.489H122.672V211.992Z" fill="#30242A"/>
<path d="M102.303 222.436H124.765" stroke="#FFB7D5" stroke-width="4" stroke-linecap="round" stroke-linejoin="round"/>
<path d="M113.531 236.532V222.436" stroke="#FFB7D5" stroke-width="4" stroke-linecap="round" stroke-linejoin="round"/>
<path d="M122.672 254.428H104.39V277.925H122.672V254.428Z" fill="#F5EBDD"/>
<path d="M102.303 264.867H124.765" stroke="#FFB7D5" stroke-width="4" stroke-linecap="round" stroke-linejoin="round"/>
<path d="M113.531 278.969V264.867" stroke="#FFB7D5" stroke-width="4" stroke-linecap="round" stroke-linejoin="round"/>
<path d="M66.6505 79.3658C74.1504 79.3658 80.2303 73.2882 80.2303 65.7912C80.2303 58.2942 74.1504 52.2167 66.6505 52.2167C59.1506 52.2167 53.0707 58.2942 53.0707 65.7912C53.0707 73.2882 59.1506 79.3658 66.6505 79.3658Z" fill="#F5EBDD"/>
<path d="M219.908 273.082H-10.4475V288.749H219.908V273.082Z" fill="#F5EBDD"/>
<path d="M108.37 0H101.09C43.8347 0 -2.60858 46.4148 -2.60858 103.664V288.749H212.074V103.664C212.074 46.4148 165.642 0 108.37 0ZM96.894 273.082H13.0746V142.549H96.894V273.082ZM96.894 126.882H13.0746V104.196C13.0746 57.1438 49.8919 18.3119 96.894 15.7931V126.882ZM196.402 273.082H112.582V142.549H196.402V273.082ZM196.402 126.882H112.582V15.7931C159.585 18.3119 196.402 57.1438 196.402 104.196V126.882Z" fill="#F5EBDD"/>
<path d="M159.89 259.323C159.89 259.323 123.695 172.48 122.114 149.842C116.8 73.6482 199.491 117.054 212.423 124.548C221.838 130.007 258.76 150.658 266.13 158.02C270.875 162.763 267.575 166.278 267.575 166.278C267.575 166.278 273.115 173.55 265.324 174.414C270.864 181.686 262.029 182.671 262.029 182.671C262.029 182.671 264.396 189.77 255.218 187.635C245.328 185.333 170.344 152.888 170.344 152.888C170.344 152.888 187.097 205.758 192.327 222.483L159.89 259.323Z" fill="#A15842"/>
<path d="M240.721 181.581C242.503 181.228 243.704 180.2 243.357 177.992C242.223 170.741 230.104 163.891 230.104 163.891C230.104 163.891 234.964 152.197 225.422 143.165" stroke="#30242A" stroke-width="4" stroke-miterlimit="10" stroke-linecap="round"/>
<path d="M261.908 182.297C257.558 179.752 241.617 170.43 237.837 168.491" stroke="#30242A" stroke-width="4" stroke-miterlimit="10" stroke-linecap="round"/>
<path d="M265.471 174.177C260.031 170.92 246.778 162.673 241.306 159.807" stroke="#30242A" stroke-width="4" stroke-miterlimit="10" stroke-linecap="round"/>
<path d="M267.448 165.271C260.595 160.729 247.669 152.313 242.555 149.731" stroke="#30242A" stroke-width="4" stroke-miterlimit="10" stroke-linecap="round"/>
<path d="M237.226 167.49C239.05 164.191 242.17 157.636 242.339 147.128" stroke="#30242A" stroke-width="4" stroke-miterlimit="10" stroke-linecap="round"/>
<path d="M170.144 154.121L157.798 148.514" stroke="#30242A" stroke-width="4" stroke-linecap="round" stroke-linejoin="round"/>
<path d="M69.8662 400.539H-17.9649V410.693H69.8662V400.539Z" fill="#A15842"/>
<path d="M84.3317 453.219L62.5755 322.717H75.9023C78.8702 322.717 81.2794 320.309 81.2794 317.342C81.2794 314.375 78.8702 311.967 75.9023 311.967H-23.8744C-26.8424 311.967 -29.2515 314.375 -29.2515 317.342C-29.2515 320.309 -26.8424 322.717 -23.8744 322.717H-10.6953L-32.4514 453.209C-32.8731 455.664 -31.2178 457.993 -28.7612 458.415C-28.5082 458.457 -28.2552 458.478 -28.0021 458.478C-25.8776 458.478 -24.0431 456.997 -23.5897 454.927L5.25151 322.717H46.6499L75.4648 454.921C75.9128 456.992 77.7474 458.473 79.8719 458.473C82.3654 458.478 84.3897 456.46 84.3949 453.973C84.3949 453.72 84.3739 453.467 84.3317 453.219Z" fill="#FFBE21"/>
<path d="M75.9023 322.717C78.8702 322.717 81.2794 320.309 81.2794 317.342C81.2794 314.375 78.8702 311.967 75.9023 311.967H-23.8744C-26.8424 311.967 -29.2515 314.375 -29.2515 317.342C-29.2515 320.309 -26.8424 322.717 -23.8744 322.717H-10.6953L-10.7216 322.88H5.1935L5.2304 322.717H46.6288L46.6656 322.88H62.6019L62.5755 322.717H75.9023Z" fill="#A15842"/>
<path d="M412.371 211.76H412.239C411.301 213.457 405.117 223.832 394.253 223.832C383.388 223.832 377.204 213.457 376.26 211.76H376.134L359.222 288.069H429.283L412.371 211.76Z" fill="#3EC1F3"/>
<path d="M367.235 252.352C381.585 253.854 403.868 266.664 411.612 287.848" stroke="#F5EBDD" stroke-width="4" stroke-miterlimit="10" stroke-linecap="round"/>
<path d="M376.535 288.464C378.142 271.206 391.822 242.682 416.441 233.76" stroke="#F5EBDD" stroke-width="4" stroke-miterlimit="10" stroke-linecap="round"/>
<path d="M393.994 218.21C387.948 224.581 380.325 230.514 371.7 234.498" stroke="#F5EBDD" stroke-width="4" stroke-miterlimit="10" stroke-linecap="round"/>
<path d="M394.253 223.832C405.117 223.832 411.301 213.457 412.239 211.76H376.26C377.204 213.457 383.382 223.832 394.253 223.832Z" fill="#30242A"/>
<path d="M295.535 458.473C292.979 458.473 290.902 456.402 290.902 453.841C290.902 453.351 290.981 452.861 291.134 452.392L305.673 408.169C306.305 406.277 308.077 405.002 310.075 405.007H320.249C322.806 405.007 324.883 407.078 324.888 409.634C324.888 410.425 324.688 411.204 324.298 411.9L299.584 456.123C298.756 457.577 297.212 458.478 295.535 458.473Z" fill="#A15842"/>
<path d="M512.485 287.205H273.911V423.73H512.485V287.205Z" fill="#FFB7D5"/>
<path d="M494.53 304.8V406.125H291.866V304.8H494.53ZM496.639 302.692H289.758V408.232H496.639V302.692Z" fill="#CA7358"/>
<path d="M392.977 302.503V408.433" stroke="#CA7358" stroke-width="4" stroke-miterlimit="10"/>
<path d="M416.952 361.607C420.344 361.607 423.094 358.858 423.094 355.468C423.094 352.077 420.344 349.329 416.952 349.329C413.56 349.329 410.811 352.077 410.811 355.468C410.811 358.858 413.56 361.607 416.952 361.607Z" fill="#30242A"/>
<path d="M369.444 361.607C372.836 361.607 375.586 358.858 375.586 355.468C375.586 352.077 372.836 349.329 369.444 349.329C366.052 349.329 363.303 352.077 363.303 355.468C363.303 358.858 366.052 361.607 369.444 361.607Z" fill="#30242A"/>
<path d="M41.4731 246.413C49.9973 246.413 56.9032 253.316 56.9032 261.837V312.115H26.0429V261.837C26.0429 253.316 32.9541 246.413 41.4731 246.413Z" fill="#4756DF"/>
<path d="M56.9085 266.116H26.0429V294.862H56.9085V266.116Z" fill="#3EC1F3"/>
<path d="M48.3315 238.414H34.6146V248.125H48.3315V238.414Z" fill="#30242A"/>
<path d="M230.22 156.871C240.759 156.871 249.303 148.331 249.303 137.795C249.303 127.26 240.759 118.719 230.22 118.719C219.68 118.719 211.136 127.26 211.136 137.795C211.136 148.331 219.68 156.871 230.22 156.871Z" fill="#30242A"/>
<path d="M215.401 149.589C216.924 150.279 204.004 120.079 197.53 124.864C191.441 129.348 207.694 146.084 215.401 149.589Z" fill="#FFBE21"/>
<path d="M213.761 149.531C215.027 151.112 245.523 141.099 241.448 134.892C237.537 128.937 212.496 147.96 213.761 149.531Z" fill="#FFBE21"/>
<path d="M251.138 127.604C257.924 127.604 263.426 122.104 263.426 115.32C263.426 108.536 257.924 103.037 251.138 103.037C244.351 103.037 238.849 108.536 238.849 115.32C238.849 122.104 244.351 127.604 251.138 127.604Z" fill="#30242A"/>
<path d="M167.213 333.024H229.961L233.272 317.342H157.666L167.213 333.024Z" fill="#CA7358"/>
<path d="M166.664 281.277C166.664 281.277 179.48 264.551 203.529 262.98L219.497 228.691C215.232 228.011 212.159 227.579 212.159 227.579C212.791 226.051 214.942 220.992 217.541 214.753C212.839 211.628 205.158 205.484 203.382 197.732C209.022 196.884 220.251 191.561 215.817 182.25C210.388 170.831 196.017 179.615 196.017 179.615C191.652 174.667 188.869 168.533 188.015 161.993C186.27 162.173 181.272 161.64 177.724 159.722L177.487 159.585C175.589 163.311 173.887 167.131 172.384 171.036C171.989 172.037 171.609 173.007 171.209 173.929C171.209 173.929 166.248 173.086 165.231 175.136C163.971 177.665 167.745 180.932 167.745 180.932C164.73 186.603 162.057 191.245 163.027 197.126C163.881 202.317 168.778 208.624 180.318 209.678L174.519 227.969L152.905 265.484C157.144 267.966 162.837 272.692 166.664 281.277Z" fill="#CA7358"/>
<path d="M319.374 207.839C312.568 199.35 288.271 164.686 280.158 158.184C274.929 153.999 271.792 157.657 271.792 157.657C271.792 157.657 263.948 152.951 263.948 160.792C256.103 156.086 256.103 164.971 256.103 164.971C256.103 164.971 248.781 163.39 251.923 172.29C255.302 181.86 293.232 250.934 293.232 250.934C293.232 250.934 254.011 236.3 238.849 232.401C236.066 231.684 232.655 230.978 229.213 230.335C226.993 235.531 223.525 244.036 217.931 258.264C210.34 277.525 214.03 296.78 235.997 304.421L239.893 285.977C239.893 285.977 280.485 301.227 303.153 300.611C380.03 298.524 328.789 219.596 319.374 207.839Z" fill="#CA7358"/>
<path d="M188.015 161.993C188.863 168.554 191.657 174.704 196.038 179.662C196.038 179.662 210.409 170.852 215.838 182.297C220.272 191.609 209.043 196.931 203.403 197.779C205.179 205.531 212.86 211.675 217.562 214.8C221.421 205.531 226.261 193.648 228.538 186.871C231.907 176.827 233.646 161.261 218.522 150.016C204.367 139.513 188.146 146.48 184.488 150.137C182.316 152.308 180.271 154.352 177.508 159.622L177.745 159.759C181.272 161.619 186.27 162.152 188.015 161.993Z" fill="#30242A"/>
<path d="M217.931 258.28C223.525 244.084 226.993 235.557 229.213 230.351C225.818 229.713 222.396 229.139 219.518 228.681L203.566 262.981C179.517 264.561 166.701 281.277 166.701 281.277C162.853 272.692 157.16 267.966 152.948 265.468L148.129 273.831C143.121 282.8 143.321 293.766 148.656 302.54L157.66 317.331H233.272L235.997 304.426C214.03 296.796 210.34 277.541 217.931 258.28Z" fill="#FFBE21"/>
<path d="M180.645 210.759C183.924 210.743 187.187 210.258 190.334 209.325" stroke="#30242A" stroke-width="4" stroke-miterlimit="10" stroke-linecap="round"/>
<path d="M257.616 182.993C258.001 181.654 258.95 180.785 260.811 180.917C268.133 181.444 275.972 192.942 275.972 192.942C275.972 192.942 287.227 187.145 297.027 195.867" stroke="#30242A" stroke-width="4" stroke-miterlimit="10" stroke-linecap="round"/>
<path d="M257.168 164.686C261.259 171.131 268.861 183.13 270.743 186.144" stroke="#30242A" stroke-width="4" stroke-miterlimit="10" stroke-linecap="round"/>
<path d="M264.717 160.212C268.935 166.42 276.315 177.012 279.114 181.444" stroke="#30242A" stroke-width="4" stroke-miterlimit="10" stroke-linecap="round"/>
<path d="M272.973 157.778C278.244 164.502 286.321 174.936 289.046 179.383" stroke="#30242A" stroke-width="4" stroke-miterlimit="10" stroke-linecap="round"/>
<path d="M271.792 186.144C274.955 184.036 281.202 180.395 291.661 179.352" stroke="#30242A" stroke-width="4" stroke-miterlimit="10" stroke-linecap="round"/>
<path d="M212.038 226.462L202.77 225.35" stroke="#30242A" stroke-width="4" stroke-miterlimit="10" stroke-linecap="round"/>
<path d="M179.237 327.797L178.715 326.754" stroke="#30242A" stroke-width="4" stroke-miterlimit="10" stroke-linecap="round"/>
<path d="M239.376 286.989L234.142 284.934" stroke="#30242A" stroke-width="4" stroke-miterlimit="10" stroke-linecap="round"/>
<path d="M305.256 254.618L293.369 249.949" stroke="#30242A" stroke-width="4" stroke-miterlimit="10" stroke-linecap="round"/>
<path d="M233.272 317.342H157.666" stroke="#30242A" stroke-width="4" stroke-linecap="round" stroke-linejoin="round"/>
<path d="M202.77 262.981L195.131 280.033C192.791 285.25 187.603 288.607 181.884 288.607H144.455" stroke="#30242A" stroke-width="4" stroke-linecap="round" stroke-linejoin="round"/>
<path d="M170.602 187.288C171.504 188.062 175.162 189.116 177.118 186.476" stroke="#30242A" stroke-width="4" stroke-miterlimit="10" stroke-linecap="round"/>
<path d="M207.747 185.649L201.125 188.215" stroke="#A15842" stroke-width="4" stroke-miterlimit="10" stroke-linecap="round"/>
<path d="M183.049 175.294C181.014 175.8 178.947 174.567 178.441 172.527C178.42 172.448 178.404 172.369 178.389 172.29" stroke="#30242A" stroke-width="4" stroke-linecap="round" stroke-linejoin="round"/>
<path d="M200.835 194.981L198.442 204.756C198.031 206.379 199.017 208.029 200.635 208.435C201.109 208.556 201.61 208.556 202.09 208.445L211.025 206.337C212.654 205.942 213.651 204.303 213.255 202.68C213.145 202.216 212.918 201.779 212.607 201.415L206.065 193.769C204.974 192.499 203.06 192.357 201.79 193.453C201.326 193.854 200.993 194.386 200.835 194.981Z" fill="#F4E6D8"/>
<path d="M220.963 422.113C215.733 415.836 197.541 393.13 197.541 393.13" stroke="#30242A" stroke-width="4" stroke-linecap="round" stroke-linejoin="round"/>
<path d="M362.243 371.198C360.324 366.012 356.803 357.323 352.459 346.889L305.836 360.49L300.491 362.176C302.895 377.716 304.74 385.294 304.74 385.294C304.74 385.294 254.543 339.295 229.967 333.024H167.192L145.752 458.473H332.948C386.308 458.473 371.142 395.227 362.243 371.198Z" fill="#4856DF"/>
<path d="M311.482 251.308C310.233 248.331 307.049 246.645 303.88 247.288C294.587 249.364 293.864 266.954 291.661 277.093C288.002 293.824 280.158 300.094 279.636 311.071C279.109 321.61 295.846 325.705 295.846 325.705C296.416 331.222 296.996 336.349 297.581 341.076L344.172 327.154C331.393 297.043 316.258 262.259 311.482 251.308Z" fill="#A15842"/>
<path d="M300.464 362.055V362.176L305.81 360.49L300.464 362.055Z" fill="#A15842"/>
<path d="M352.469 346.873C352.332 346.551 352.201 346.225 352.063 345.898L305.836 360.49L352.469 346.873Z" fill="#3EC1F3"/>
<path d="M352.063 345.903C349.633 340.075 346.955 333.725 344.156 327.159L297.565 341.082C298.561 349.218 299.547 356.2 300.449 362.06L305.815 360.479L352.063 345.903Z" fill="#3EC1F3"/>
<path d="M210.809 332.861C227.52 350.382 313.934 439.202 340.814 430.244C360.44 423.704 331.541 359.272 328.789 350.794" stroke="#3EC1F3" stroke-width="4" stroke-linecap="round" stroke-linejoin="round"/>
<path d="M327.45 404.185C321.393 398.758 310.581 389.077 304.835 383.966" stroke="#30242A" stroke-width="4" stroke-linecap="round" stroke-linejoin="round"/>
<path d="M293.754 313.685L294.776 324.609" stroke="#30242A" stroke-width="4" stroke-linecap="round" stroke-linejoin="round"/>
<path d="M306.891 248.215L308.873 253.769" stroke="#30242A" stroke-width="4" stroke-linecap="round" stroke-linejoin="round"/>
<path d="M302.146 248.742L305.351 256.62" stroke="#30242A" stroke-width="4" stroke-linecap="round" stroke-linejoin="round"/>
<path d="M180.65 402.731L180.355 402.641L191.262 332.919H167.192C167.192 332.919 70.9997 369.617 49.0379 404.633C28.2781 437.732 66.2921 458.473 77.2729 458.473H173.043L180.65 402.731Z" fill="#4856DF"/>
<path d="M281.724 458.473C294.276 458.473 290.095 444.356 281.197 439.655C272.298 434.955 261.85 430.244 250.869 415.61C239.888 400.976 226.814 404.633 218.448 415.083C218.448 415.083 212.069 412.791 202.696 409.682L195.358 458.468L281.724 458.473Z" fill="#CA7358"/>
<path d="M181.567 403.005L180.65 402.731L173.043 458.473H195.363L202.702 409.666C196.607 407.669 189.254 405.303 181.567 403.005Z" fill="#3EC1F3"/>
<path d="M275.972 452.724L283.695 457.419" stroke="#30242A" stroke-width="4" stroke-linecap="round" stroke-linejoin="round"/>
<path d="M129.041 390.521C151.002 394.7 160.502 397.372 180.371 403.695" stroke="#30242A" stroke-width="4" stroke-linecap="round" stroke-linejoin="round"/>
<path d="M269.699 455.338L274.206 457.946" stroke="#30242A" stroke-width="4" stroke-linecap="round" stroke-linejoin="round"/>
<path d="M219.502 414.435L226.819 417.18" stroke="#30242A" stroke-width="4" stroke-linecap="round" stroke-linejoin="round"/>
<path d="M395.913 217.462C397.031 210.864 402.113 184.695 414.548 170.536" stroke="#30242A" stroke-width="4" stroke-miterlimit="10" stroke-linecap="round"/>
<path d="M422.2 193.377C433.058 188.685 441.004 182.902 439.948 180.46C438.892 178.019 429.234 179.843 418.376 184.535C407.518 189.227 399.572 195.01 400.628 197.452C401.684 199.893 411.342 198.069 422.2 193.377Z" fill="#30242A"/>
<path d="M423.303 125.064C427.229 119.83 428.931 114.477 427.105 113.108C425.279 111.739 420.615 114.873 416.689 120.108C412.763 125.342 411.06 130.695 412.887 132.064C414.713 133.433 419.376 130.299 423.303 125.064Z" fill="#30242A"/>
<path d="M444.481 160.349C443.717 157.862 438.761 157.061 432.488 158.11C437.08 151.907 438.977 145.853 436.705 143.94C434.433 142.027 428.798 144.915 423.442 150.474C423.442 144.119 421.802 139.366 419.224 139.034C415.935 138.607 412.329 145.536 411.169 154.505C410.827 157.066 410.732 159.654 410.885 162.236C415.919 160.66 421.28 163.464 422.857 168.496C423.257 169.766 423.384 171.105 423.231 172.427C425.719 172.137 428.176 171.621 430.569 170.883C439.209 168.238 445.44 163.522 444.481 160.349Z" fill="#FFBE21"/>
<path d="M419.889 164.049C417.395 161.941 413.99 161.256 410.874 162.236C411.153 166.51 412.213 169.787 413.831 171.01C415.334 172.427 418.845 172.917 423.22 172.427C423.584 169.255 422.335 166.109 419.889 164.049Z" fill="#30242A"/>
<path d="M392.465 216.624C392.102 209.13 389.925 172.359 381.764 150.643" stroke="#30242A" stroke-width="4" stroke-miterlimit="10" stroke-linecap="round"/>
<path d="M365.544 195.533C379.566 192.862 390.551 188.689 390.079 186.214C389.607 183.738 377.857 183.897 363.835 186.568C349.813 189.239 338.828 193.411 339.3 195.887C339.772 198.363 351.522 198.204 365.544 195.533Z" fill="#30242A"/>
<path d="M387.747 119.373C385.206 118.814 382.08 122.745 379.914 128.721C376.751 121.681 372.407 117.059 369.634 118.092C366.861 119.125 366.592 125.47 368.822 132.847C363.271 129.749 358.337 128.827 356.782 130.913C354.794 133.548 359.064 140.109 366.318 145.521C368.385 147.075 370.593 148.43 372.918 149.562C374.009 144.404 379.081 141.11 384.242 142.201C385.544 142.475 386.777 143.023 387.858 143.803C388.823 141.495 389.577 139.097 390.109 136.652C392.044 127.82 390.989 120.084 387.747 119.373Z" fill="#FFBE21"/>
<path d="M378.923 142.601C375.86 143.74 373.593 146.369 372.918 149.568C376.782 151.417 380.156 152.102 382.017 151.296C383.989 150.674 386.139 147.855 387.858 143.808C385.27 141.937 381.917 141.484 378.923 142.601Z" fill="#30242A"/>
<path d="M354.594 158.537V158.568C358.911 161.008 360.646 166.346 358.585 170.857C356.518 175.363 351.352 177.539 346.681 175.879V175.916C358.479 181.307 369.818 181.781 371.985 176.97C374.152 172.159 366.392 163.922 354.594 158.537Z" fill="#FFBE21"/>
<path d="M355.543 174.572C353.308 173.323 352.512 170.493 353.761 168.259C354.873 166.272 357.267 165.387 359.407 166.172C359.164 162.989 357.356 160.139 354.578 158.568L346.671 175.879C349.665 176.949 352.991 176.459 355.543 174.572Z" fill="#F5EBDD"/>
<path d="M353.592 168.602C352.591 170.794 353.439 173.392 355.543 174.572C358.194 172.628 359.655 169.45 359.407 166.172C357.135 165.345 354.604 166.399 353.592 168.602Z" fill="#30242A"/>
</svg>
